<mxfile host="app.diagrams.net" modified="2023-05-14T09:25:09.711Z" agent="Mozilla/5.0 (X11; Linux x86_64) AppleWebKit/537.36 (KHTML, like Gecko) Chrome/113.0.0.0 Safari/537.36" etag="itfWS94aLXUQuvkiFpqb" version="21.3.0" type="github">
  <diagram name="第 1 页" id="hsxlmt1f32UlP7LL9Phz">
    <mxGraphModel dx="819" dy="461" grid="1" gridSize="10" guides="1" tooltips="1" connect="1" arrows="1" fold="1" page="1" pageScale="1" pageWidth="583" pageHeight="827" math="0" shadow="0">
      <root>
        <mxCell id="0" />
        <mxCell id="1" parent="0" />
        <mxCell id="9M-1rqzRaxz3Tb8N7U6h-59" value="" style="group" vertex="1" connectable="0" parent="1">
          <mxGeometry x="10" y="10" width="570" height="210" as="geometry" />
        </mxCell>
        <mxCell id="9M-1rqzRaxz3Tb8N7U6h-60" style="edgeStyle=orthogonalEdgeStyle;rounded=0;orthogonalLoop=1;jettySize=auto;html=1;exitX=0.5;exitY=0.5;exitDx=0;exitDy=0;exitPerimeter=0;" edge="1" parent="9M-1rqzRaxz3Tb8N7U6h-59" source="9M-1rqzRaxz3Tb8N7U6h-1">
          <mxGeometry relative="1" as="geometry">
            <mxPoint x="18.812807881773367" y="57" as="targetPoint" />
          </mxGeometry>
        </mxCell>
        <mxCell id="9M-1rqzRaxz3Tb8N7U6h-1" value="游客用户" style="shape=umlActor;verticalLabelPosition=bottom;verticalAlign=top;html=1;fontSize=11;fontFamily=宋体;" vertex="1" parent="9M-1rqzRaxz3Tb8N7U6h-59">
          <mxGeometry y="28.37837837837838" width="38" height="56.75675675675676" as="geometry" />
        </mxCell>
        <mxCell id="9M-1rqzRaxz3Tb8N7U6h-7" value="" style="html=1;whiteSpace=wrap;fillColor=none;fontSize=11;" vertex="1" parent="9M-1rqzRaxz3Tb8N7U6h-59">
          <mxGeometry x="101.33333333333334" width="468.66666666666674" height="210" as="geometry" />
        </mxCell>
        <mxCell id="9M-1rqzRaxz3Tb8N7U6h-8" value="公共图像预览" style="ellipse;whiteSpace=wrap;html=1;fontSize=11;fontFamily=宋体;" vertex="1" parent="9M-1rqzRaxz3Tb8N7U6h-59">
          <mxGeometry x="157.06666666666666" y="28.375675675675673" width="101.33333333333334" height="34.054054054054056" as="geometry" />
        </mxCell>
        <mxCell id="9M-1rqzRaxz3Tb8N7U6h-10" value="" style="endArrow=none;html=1;rounded=0;exitX=1;exitY=0.3333333333333333;exitDx=0;exitDy=0;exitPerimeter=0;entryX=0;entryY=0.5;entryDx=0;entryDy=0;endFill=0;fontSize=11;" edge="1" parent="9M-1rqzRaxz3Tb8N7U6h-59" source="9M-1rqzRaxz3Tb8N7U6h-1" target="9M-1rqzRaxz3Tb8N7U6h-8">
          <mxGeometry width="50" height="50" relative="1" as="geometry">
            <mxPoint x="126.66666666666666" y="28.37837837837838" as="sourcePoint" />
            <mxPoint x="190" y="-28.37837837837838" as="targetPoint" />
          </mxGeometry>
        </mxCell>
        <mxCell id="9M-1rqzRaxz3Tb8N7U6h-11" value="登录" style="ellipse;whiteSpace=wrap;html=1;fontSize=11;fontFamily=宋体;" vertex="1" parent="9M-1rqzRaxz3Tb8N7U6h-59">
          <mxGeometry x="176.0666666666667" y="139.9991891891892" width="63.33333333333333" height="34.054054054054056" as="geometry" />
        </mxCell>
        <mxCell id="9M-1rqzRaxz3Tb8N7U6h-12" value="注册" style="ellipse;whiteSpace=wrap;html=1;fontSize=11;fontFamily=宋体;" vertex="1" parent="9M-1rqzRaxz3Tb8N7U6h-59">
          <mxGeometry x="176.0666666666667" y="87.97243243243244" width="63.33333333333333" height="34.054054054054056" as="geometry" />
        </mxCell>
        <mxCell id="9M-1rqzRaxz3Tb8N7U6h-14" value="" style="endArrow=none;html=1;rounded=0;entryX=0;entryY=0.5;entryDx=0;entryDy=0;endFill=0;fontSize=11;exitX=1;exitY=0.3333333333333333;exitDx=0;exitDy=0;exitPerimeter=0;" edge="1" parent="9M-1rqzRaxz3Tb8N7U6h-59" source="9M-1rqzRaxz3Tb8N7U6h-1" target="9M-1rqzRaxz3Tb8N7U6h-12">
          <mxGeometry width="50" height="50" relative="1" as="geometry">
            <mxPoint x="38" y="51.08108108108108" as="sourcePoint" />
            <mxPoint x="305.2666666666667" y="45.4054054054054" as="targetPoint" />
          </mxGeometry>
        </mxCell>
        <mxCell id="9M-1rqzRaxz3Tb8N7U6h-15" value="" style="endArrow=none;html=1;rounded=0;entryX=0;entryY=0.5;entryDx=0;entryDy=0;endFill=0;exitX=1;exitY=0.3333333333333333;exitDx=0;exitDy=0;exitPerimeter=0;fontSize=11;" edge="1" parent="9M-1rqzRaxz3Tb8N7U6h-59" source="9M-1rqzRaxz3Tb8N7U6h-1" target="9M-1rqzRaxz3Tb8N7U6h-11">
          <mxGeometry width="50" height="50" relative="1" as="geometry">
            <mxPoint x="114.00000000000001" y="51.08108108108108" as="sourcePoint" />
            <mxPoint x="305.2666666666667" y="181.6216216216216" as="targetPoint" />
          </mxGeometry>
        </mxCell>
        <mxCell id="9M-1rqzRaxz3Tb8N7U6h-17" value="图像详情" style="ellipse;whiteSpace=wrap;html=1;fontSize=11;fontFamily=宋体;" vertex="1" parent="9M-1rqzRaxz3Tb8N7U6h-59">
          <mxGeometry x="417.2891379310345" y="130.54" width="102.75724137931034" height="34.05" as="geometry" />
        </mxCell>
        <mxCell id="9M-1rqzRaxz3Tb8N7U6h-57" style="rounded=0;orthogonalLoop=1;jettySize=auto;html=1;exitX=1;exitY=0.5;exitDx=0;exitDy=0;entryX=0;entryY=0.5;entryDx=0;entryDy=0;dashed=1;startArrow=open;startFill=0;endArrow=open;endFill=0;" edge="1" parent="9M-1rqzRaxz3Tb8N7U6h-59" source="9M-1rqzRaxz3Tb8N7U6h-8" target="9M-1rqzRaxz3Tb8N7U6h-17">
          <mxGeometry relative="1" as="geometry" />
        </mxCell>
        <mxCell id="9M-1rqzRaxz3Tb8N7U6h-58" value="&amp;lt;&amp;lt;include&amp;gt;&amp;gt;" style="edgeLabel;html=1;align=center;verticalAlign=middle;resizable=0;points=[];fontFamily=Times New Roman;fontSize=10;rotation=40;" vertex="1" connectable="0" parent="9M-1rqzRaxz3Tb8N7U6h-57">
          <mxGeometry x="0.1336" relative="1" as="geometry">
            <mxPoint as="offset" />
          </mxGeometry>
        </mxCell>
        <mxCell id="9M-1rqzRaxz3Tb8N7U6h-38" value="图像检索" style="ellipse;whiteSpace=wrap;html=1;fontSize=11;fontFamily=宋体;" vertex="1" parent="9M-1rqzRaxz3Tb8N7U6h-59">
          <mxGeometry x="418" y="17.027027027027028" width="101.33333333333334" height="34.054054054054056" as="geometry" />
        </mxCell>
        <mxCell id="9M-1rqzRaxz3Tb8N7U6h-44" value="图像简单操作" style="ellipse;whiteSpace=wrap;html=1;fontSize=11;fontFamily=宋体;" vertex="1" parent="9M-1rqzRaxz3Tb8N7U6h-59">
          <mxGeometry x="411.6666666666667" y="73.78378378378379" width="114.00000000000001" height="34.054054054054056" as="geometry" />
        </mxCell>
        <mxCell id="9M-1rqzRaxz3Tb8N7U6h-45" style="rounded=0;orthogonalLoop=1;jettySize=auto;html=1;exitX=1;exitY=0.5;exitDx=0;exitDy=0;entryX=0;entryY=0.5;entryDx=0;entryDy=0;dashed=1;startArrow=open;startFill=0;endArrow=open;endFill=0;fontSize=11;" edge="1" parent="9M-1rqzRaxz3Tb8N7U6h-59" source="9M-1rqzRaxz3Tb8N7U6h-8" target="9M-1rqzRaxz3Tb8N7U6h-44">
          <mxGeometry relative="1" as="geometry">
            <mxPoint x="258.4" y="25.54054054054054" as="sourcePoint" />
            <mxPoint x="380" y="105" as="targetPoint" />
          </mxGeometry>
        </mxCell>
        <mxCell id="9M-1rqzRaxz3Tb8N7U6h-46" value="&amp;lt;&amp;lt;include&amp;gt;&amp;gt;" style="edgeLabel;html=1;align=center;verticalAlign=middle;resizable=0;points=[];fontSize=11;fontFamily=Times New Roman;rotation=30;" vertex="1" connectable="0" parent="9M-1rqzRaxz3Tb8N7U6h-45">
          <mxGeometry x="0.1073" y="1" relative="1" as="geometry">
            <mxPoint x="2" y="2" as="offset" />
          </mxGeometry>
        </mxCell>
        <mxCell id="9M-1rqzRaxz3Tb8N7U6h-39" style="rounded=0;orthogonalLoop=1;jettySize=auto;html=1;exitX=1;exitY=0.5;exitDx=0;exitDy=0;entryX=0;entryY=0.5;entryDx=0;entryDy=0;dashed=1;startArrow=open;startFill=0;endArrow=open;endFill=0;fontSize=11;" edge="1" parent="9M-1rqzRaxz3Tb8N7U6h-59" source="9M-1rqzRaxz3Tb8N7U6h-8" target="9M-1rqzRaxz3Tb8N7U6h-38">
          <mxGeometry relative="1" as="geometry" />
        </mxCell>
        <mxCell id="9M-1rqzRaxz3Tb8N7U6h-41" value="&amp;lt;&amp;lt;include&amp;gt;&amp;gt;" style="edgeLabel;html=1;align=center;verticalAlign=middle;resizable=0;points=[];fontSize=11;fontFamily=Times New Roman;rotation=5;" vertex="1" connectable="0" parent="9M-1rqzRaxz3Tb8N7U6h-39">
          <mxGeometry x="0.1073" y="1" relative="1" as="geometry">
            <mxPoint x="-2" y="-5" as="offset" />
          </mxGeometry>
        </mxCell>
      </root>
    </mxGraphModel>
  </diagram>
</mxfile>
